<svg width="201" height="202" viewBox="0 0 201 202" fill="none" xmlns="http://www.w3.org/2000/svg">
<path d="M0 100.767C0 45.2562 44.9872 0.265625 100.505 0.265625C156.023 0.265625 201 45.2562 201 100.767C201 149.332 166.567 189.847 120.773 199.225C114.23 200.566 107.452 201.262 100.535 201.262H0V100.764V100.767Z" fill="#027E6F"/>
<path d="M170.097 91.2415H124.844L113.617 109.714H151.433C145.582 141.844 109.848 163.719 74.1442 145.216C66.4648 141.242 60.2143 135.096 56.1729 127.416C35.6328 88.3063 63.6909 48.9609 100.723 48.9609C116.253 48.9609 130.217 55.8771 139.672 66.7944L149.59 50.4639C135.896 37.0686 116.727 29.2177 95.7872 30.6937C60.8532 33.1011 32.5294 62.057 30.8281 97.0246C28.888 137.174 60.9843 170.436 100.703 170.436C140.421 170.436 170.675 139.036 170.675 100.461C170.675 97.3239 170.436 94.2507 170.043 91.2415H170.107H170.097Z" fill="white"/>
</svg>